<mxfile host="app.diagrams.net" agent="Mozilla/5.0 (Windows NT 10.0; Win64; x64; rv:136.0) Gecko/20100101 Firefox/136.0" version="26.1.1" pages="2">
  <diagram name="currence" id="Elb95-9UcGBIc47zvu9p">
    <mxGraphModel dx="1865" dy="1757" grid="1" gridSize="10" guides="1" tooltips="1" connect="1" arrows="1" fold="1" page="1" pageScale="1" pageWidth="827" pageHeight="1169" math="0" shadow="0">
      <root>
        <mxCell id="0" />
        <mxCell id="1" parent="0" />
        <mxCell id="mhEgMub5AA9hyZn4WTvB-6" value="&lt;b&gt;&lt;font style=&quot;font-size: 20px;&quot;&gt;&lt;br&gt;&lt;/font&gt;&lt;/b&gt;&lt;div&gt;&lt;b&gt;&lt;font style=&quot;font-size: 20px;&quot;&gt;&lt;br&gt;&lt;/font&gt;&lt;/b&gt;&lt;/div&gt;&lt;div&gt;&lt;b&gt;&lt;font style=&quot;font-size: 20px;&quot;&gt;&lt;br&gt;&lt;/font&gt;&lt;/b&gt;&lt;/div&gt;&lt;div&gt;&lt;b&gt;&lt;font style=&quot;font-size: 20px;&quot;&gt;&lt;br&gt;&lt;/font&gt;&lt;/b&gt;&lt;/div&gt;&lt;div&gt;&lt;b&gt;&lt;font style=&quot;font-size: 20px;&quot;&gt;Platform&lt;/font&gt;&lt;/b&gt;&lt;/div&gt;&lt;div&gt;&lt;br&gt;&lt;/div&gt;&lt;div&gt;&lt;br&gt;&lt;/div&gt;" style="rounded=0;whiteSpace=wrap;html=1;strokeWidth=2;fontSize=18;" vertex="1" parent="1">
          <mxGeometry x="-520" y="-30" width="460" height="950" as="geometry" />
        </mxCell>
        <mxCell id="mhEgMub5AA9hyZn4WTvB-64" value="" style="rounded=0;whiteSpace=wrap;html=1;strokeWidth=2;" vertex="1" parent="1">
          <mxGeometry x="-480" y="504" width="380" height="380" as="geometry" />
        </mxCell>
        <mxCell id="mhEgMub5AA9hyZn4WTvB-63" value="" style="rounded=0;whiteSpace=wrap;html=1;strokeWidth=2;" vertex="1" parent="1">
          <mxGeometry x="-480" y="-12" width="380" height="460" as="geometry" />
        </mxCell>
        <mxCell id="mhEgMub5AA9hyZn4WTvB-5" style="edgeStyle=orthogonalEdgeStyle;rounded=0;orthogonalLoop=1;jettySize=auto;html=1;exitX=1;exitY=0.25;exitDx=0;exitDy=0;entryX=0;entryY=0.75;entryDx=0;entryDy=0;strokeWidth=2;" edge="1" parent="1" source="mhEgMub5AA9hyZn4WTvB-2" target="mhEgMub5AA9hyZn4WTvB-3">
          <mxGeometry relative="1" as="geometry" />
        </mxCell>
        <mxCell id="mhEgMub5AA9hyZn4WTvB-20" value="po/so/do/ro" style="edgeLabel;html=1;align=center;verticalAlign=middle;resizable=0;points=[];" vertex="1" connectable="0" parent="mhEgMub5AA9hyZn4WTvB-5">
          <mxGeometry x="-0.1882" relative="1" as="geometry">
            <mxPoint as="offset" />
          </mxGeometry>
        </mxCell>
        <mxCell id="mhEgMub5AA9hyZn4WTvB-8" style="edgeStyle=orthogonalEdgeStyle;rounded=0;orthogonalLoop=1;jettySize=auto;html=1;exitX=0;exitY=0.75;exitDx=0;exitDy=0;entryX=1;entryY=0.75;entryDx=0;entryDy=0;strokeWidth=2;" edge="1" parent="1" source="mhEgMub5AA9hyZn4WTvB-2" target="mhEgMub5AA9hyZn4WTvB-6">
          <mxGeometry relative="1" as="geometry" />
        </mxCell>
        <mxCell id="mhEgMub5AA9hyZn4WTvB-18" value="status feefback" style="edgeLabel;html=1;align=center;verticalAlign=middle;resizable=0;points=[];" vertex="1" connectable="0" parent="mhEgMub5AA9hyZn4WTvB-8">
          <mxGeometry x="0.0765" y="1" relative="1" as="geometry">
            <mxPoint as="offset" />
          </mxGeometry>
        </mxCell>
        <mxCell id="mhEgMub5AA9hyZn4WTvB-10" style="edgeStyle=orthogonalEdgeStyle;rounded=0;orthogonalLoop=1;jettySize=auto;html=1;exitX=1;exitY=0.75;exitDx=0;exitDy=0;entryX=0;entryY=0.75;entryDx=0;entryDy=0;strokeWidth=2;" edge="1" parent="1" source="mhEgMub5AA9hyZn4WTvB-2" target="mhEgMub5AA9hyZn4WTvB-9">
          <mxGeometry relative="1" as="geometry" />
        </mxCell>
        <mxCell id="mhEgMub5AA9hyZn4WTvB-19" value="do/ro" style="edgeLabel;html=1;align=center;verticalAlign=middle;resizable=0;points=[];" vertex="1" connectable="0" parent="mhEgMub5AA9hyZn4WTvB-10">
          <mxGeometry x="-0.1549" y="1" relative="1" as="geometry">
            <mxPoint x="-1" y="-3" as="offset" />
          </mxGeometry>
        </mxCell>
        <mxCell id="mhEgMub5AA9hyZn4WTvB-31" style="edgeStyle=orthogonalEdgeStyle;rounded=0;orthogonalLoop=1;jettySize=auto;html=1;exitX=0;exitY=0.25;exitDx=0;exitDy=0;entryX=1;entryY=0.25;entryDx=0;entryDy=0;strokeWidth=2;" edge="1" parent="1" source="mhEgMub5AA9hyZn4WTvB-2" target="mhEgMub5AA9hyZn4WTvB-6">
          <mxGeometry relative="1" as="geometry" />
        </mxCell>
        <mxCell id="mhEgMub5AA9hyZn4WTvB-32" value="product sync" style="edgeLabel;html=1;align=center;verticalAlign=middle;resizable=0;points=[];" vertex="1" connectable="0" parent="mhEgMub5AA9hyZn4WTvB-31">
          <mxGeometry x="0.087" y="4" relative="1" as="geometry">
            <mxPoint as="offset" />
          </mxGeometry>
        </mxCell>
        <mxCell id="mhEgMub5AA9hyZn4WTvB-2" value="&lt;div&gt;ERP&lt;/div&gt;（ToC Fulfillment）" style="rounded=1;whiteSpace=wrap;html=1;strokeWidth=2;fontSize=18;" vertex="1" parent="1">
          <mxGeometry x="70" y="330" width="450" height="230" as="geometry" />
        </mxCell>
        <mxCell id="mhEgMub5AA9hyZn4WTvB-3" value="BI-自研" style="rounded=1;whiteSpace=wrap;html=1;strokeWidth=2;fontSize=18;" vertex="1" parent="1">
          <mxGeometry x="648" y="198" width="300" height="160" as="geometry" />
        </mxCell>
        <mxCell id="mhEgMub5AA9hyZn4WTvB-7" style="edgeStyle=orthogonalEdgeStyle;rounded=0;orthogonalLoop=1;jettySize=auto;html=1;exitX=1;exitY=0.5;exitDx=0;exitDy=0;entryX=0;entryY=0.5;entryDx=0;entryDy=0;strokeWidth=2;" edge="1" parent="1" source="mhEgMub5AA9hyZn4WTvB-6" target="mhEgMub5AA9hyZn4WTvB-2">
          <mxGeometry relative="1" as="geometry" />
        </mxCell>
        <mxCell id="mhEgMub5AA9hyZn4WTvB-17" value="so" style="edgeLabel;html=1;align=center;verticalAlign=middle;resizable=0;points=[];" vertex="1" connectable="0" parent="mhEgMub5AA9hyZn4WTvB-7">
          <mxGeometry x="-0.2529" y="1" relative="1" as="geometry">
            <mxPoint as="offset" />
          </mxGeometry>
        </mxCell>
        <mxCell id="mhEgMub5AA9hyZn4WTvB-9" value="&lt;div&gt;Warehouse&lt;/div&gt;&lt;div&gt;&lt;br&gt;&lt;/div&gt;&lt;div&gt;&lt;br&gt;&lt;/div&gt;&lt;div&gt;&lt;br&gt;&lt;/div&gt;&lt;div&gt;&lt;br&gt;&lt;/div&gt;&lt;div&gt;&lt;br&gt;&lt;/div&gt;&lt;div&gt;&lt;br&gt;&lt;/div&gt;&lt;div&gt;&lt;br&gt;&lt;/div&gt;&lt;div&gt;&lt;br&gt;&lt;/div&gt;&lt;div&gt;&lt;br&gt;&lt;/div&gt;&lt;div&gt;&lt;br&gt;&lt;/div&gt;&lt;div&gt;&lt;br&gt;&lt;/div&gt;&lt;div&gt;&lt;br&gt;&lt;/div&gt;&lt;div&gt;&lt;br&gt;&lt;/div&gt;&lt;div&gt;&lt;br&gt;&lt;/div&gt;&lt;div&gt;&lt;br&gt;&lt;/div&gt;&lt;div&gt;&lt;br&gt;&lt;/div&gt;&lt;div&gt;&lt;br&gt;&lt;/div&gt;" style="rounded=0;whiteSpace=wrap;html=1;strokeWidth=2;fontSize=20;fontStyle=1" vertex="1" parent="1">
          <mxGeometry x="633" y="400" width="330" height="460" as="geometry" />
        </mxCell>
        <mxCell id="mhEgMub5AA9hyZn4WTvB-15" style="edgeStyle=orthogonalEdgeStyle;rounded=0;orthogonalLoop=1;jettySize=auto;html=1;entryX=0.5;entryY=0;entryDx=0;entryDy=0;" edge="1" parent="1" source="mhEgMub5AA9hyZn4WTvB-11" target="mhEgMub5AA9hyZn4WTvB-2">
          <mxGeometry relative="1" as="geometry">
            <mxPoint x="282" y="318.5" as="targetPoint" />
          </mxGeometry>
        </mxCell>
        <mxCell id="mhEgMub5AA9hyZn4WTvB-28" value="商品/采销/盘点/调拨" style="edgeLabel;html=1;align=center;verticalAlign=middle;resizable=0;points=[];" vertex="1" connectable="0" parent="mhEgMub5AA9hyZn4WTvB-15">
          <mxGeometry x="-0.1594" relative="1" as="geometry">
            <mxPoint as="offset" />
          </mxGeometry>
        </mxCell>
        <mxCell id="mhEgMub5AA9hyZn4WTvB-11" value="" style="sketch=0;pointerEvents=1;shadow=0;dashed=0;html=1;strokeColor=none;labelPosition=center;verticalLabelPosition=bottom;verticalAlign=top;align=center;fillColor=#505050;shape=mxgraph.mscae.intune.user_group" vertex="1" parent="1">
          <mxGeometry x="270" y="218.5" width="50" height="37" as="geometry" />
        </mxCell>
        <mxCell id="mhEgMub5AA9hyZn4WTvB-14" value="审批" style="edgeStyle=orthogonalEdgeStyle;rounded=0;orthogonalLoop=1;jettySize=auto;html=1;exitX=0.5;exitY=1;exitDx=0;exitDy=0;exitPerimeter=0;entryX=0.25;entryY=0;entryDx=0;entryDy=0;" edge="1" parent="1" source="mhEgMub5AA9hyZn4WTvB-12" target="mhEgMub5AA9hyZn4WTvB-2">
          <mxGeometry relative="1" as="geometry">
            <mxPoint x="174.9000000000001" y="318.3399999999997" as="targetPoint" />
          </mxGeometry>
        </mxCell>
        <mxCell id="mhEgMub5AA9hyZn4WTvB-12" value="" style="sketch=0;pointerEvents=1;shadow=0;dashed=0;html=1;strokeColor=none;labelPosition=center;verticalLabelPosition=bottom;verticalAlign=top;align=center;fillColor=#505050;shape=mxgraph.mscae.intune.user_group" vertex="1" parent="1">
          <mxGeometry x="157" y="218.5" width="50" height="37" as="geometry" />
        </mxCell>
        <mxCell id="mhEgMub5AA9hyZn4WTvB-16" style="rounded=0;orthogonalLoop=1;jettySize=auto;html=1;entryX=0.75;entryY=0;entryDx=0;entryDy=0;" edge="1" parent="1" source="mhEgMub5AA9hyZn4WTvB-13" target="mhEgMub5AA9hyZn4WTvB-2">
          <mxGeometry relative="1" as="geometry">
            <mxPoint x="376.8000000000002" y="317.2199999999998" as="targetPoint" />
          </mxGeometry>
        </mxCell>
        <mxCell id="mhEgMub5AA9hyZn4WTvB-27" value="B2B" style="edgeLabel;html=1;align=center;verticalAlign=middle;resizable=0;points=[];" vertex="1" connectable="0" parent="mhEgMub5AA9hyZn4WTvB-16">
          <mxGeometry x="-0.1744" y="2" relative="1" as="geometry">
            <mxPoint as="offset" />
          </mxGeometry>
        </mxCell>
        <mxCell id="mhEgMub5AA9hyZn4WTvB-13" value="" style="sketch=0;pointerEvents=1;shadow=0;dashed=0;html=1;strokeColor=none;labelPosition=center;verticalLabelPosition=bottom;verticalAlign=top;align=center;fillColor=#505050;shape=mxgraph.mscae.intune.user_group" vertex="1" parent="1">
          <mxGeometry x="383" y="218.5" width="50" height="37" as="geometry" />
        </mxCell>
        <mxCell id="mhEgMub5AA9hyZn4WTvB-22" value="财务" style="text;html=1;align=center;verticalAlign=middle;whiteSpace=wrap;rounded=0;" vertex="1" parent="1">
          <mxGeometry x="167" y="197.5" width="30" height="21" as="geometry" />
        </mxCell>
        <mxCell id="mhEgMub5AA9hyZn4WTvB-23" value="供应链" style="text;html=1;align=center;verticalAlign=middle;whiteSpace=wrap;rounded=0;" vertex="1" parent="1">
          <mxGeometry x="275" y="197.5" width="40" height="21" as="geometry" />
        </mxCell>
        <mxCell id="mhEgMub5AA9hyZn4WTvB-25" value="业务" style="text;html=1;align=center;verticalAlign=middle;whiteSpace=wrap;rounded=0;" vertex="1" parent="1">
          <mxGeometry x="392" y="197.5" width="30" height="21" as="geometry" />
        </mxCell>
        <mxCell id="mhEgMub5AA9hyZn4WTvB-34" value="天猫：供分销" style="rounded=1;whiteSpace=wrap;html=1;strokeWidth=2;fontSize=18;" vertex="1" parent="1">
          <mxGeometry x="-430" y="88" width="300" height="60" as="geometry" />
        </mxCell>
        <mxCell id="mhEgMub5AA9hyZn4WTvB-36" value="淘小程序" style="rounded=1;whiteSpace=wrap;html=1;strokeWidth=2;fontSize=18;" vertex="1" parent="1">
          <mxGeometry x="-430" y="158" width="300" height="60" as="geometry" />
        </mxCell>
        <mxCell id="mhEgMub5AA9hyZn4WTvB-37" value="天猫国际" style="rounded=1;whiteSpace=wrap;html=1;strokeWidth=2;fontSize=18;" vertex="1" parent="1">
          <mxGeometry x="-430" y="18" width="300" height="60" as="geometry" />
        </mxCell>
        <mxCell id="mhEgMub5AA9hyZn4WTvB-38" value="小红书" style="rounded=1;whiteSpace=wrap;html=1;strokeWidth=2;fontSize=18;" vertex="1" parent="1">
          <mxGeometry x="-430" y="228" width="300" height="60" as="geometry" />
        </mxCell>
        <mxCell id="mhEgMub5AA9hyZn4WTvB-39" value="海之悦" style="rounded=1;whiteSpace=wrap;html=1;strokeWidth=2;fontSize=18;" vertex="1" parent="1">
          <mxGeometry x="-430" y="298" width="300" height="60" as="geometry" />
        </mxCell>
        <mxCell id="mhEgMub5AA9hyZn4WTvB-40" value="欣士达" style="rounded=1;whiteSpace=wrap;html=1;strokeWidth=2;fontSize=18;" vertex="1" parent="1">
          <mxGeometry x="-430" y="368" width="300" height="60" as="geometry" />
        </mxCell>
        <mxCell id="mhEgMub5AA9hyZn4WTvB-41" value="抖音" style="rounded=1;whiteSpace=wrap;html=1;strokeWidth=2;fontSize=18;" vertex="1" parent="1">
          <mxGeometry x="-420" y="734" width="300" height="60" as="geometry" />
        </mxCell>
        <mxCell id="mhEgMub5AA9hyZn4WTvB-42" value="海带" style="rounded=1;whiteSpace=wrap;html=1;strokeWidth=2;fontSize=18;" vertex="1" parent="1">
          <mxGeometry x="-420" y="594" width="300" height="60" as="geometry" />
        </mxCell>
        <mxCell id="mhEgMub5AA9hyZn4WTvB-43" value="有赞" style="rounded=1;whiteSpace=wrap;html=1;strokeWidth=2;fontSize=18;" vertex="1" parent="1">
          <mxGeometry x="-420" y="664" width="300" height="60" as="geometry" />
        </mxCell>
        <mxCell id="mhEgMub5AA9hyZn4WTvB-44" value="JD" style="rounded=1;whiteSpace=wrap;html=1;strokeWidth=2;fontSize=18;" vertex="1" parent="1">
          <mxGeometry x="-420" y="524" width="300" height="60" as="geometry" />
        </mxCell>
        <mxCell id="mhEgMub5AA9hyZn4WTvB-45" value="海拍客" style="rounded=1;whiteSpace=wrap;html=1;strokeWidth=2;fontSize=18;" vertex="1" parent="1">
          <mxGeometry x="-420" y="804" width="300" height="60" as="geometry" />
        </mxCell>
        <mxCell id="mhEgMub5AA9hyZn4WTvB-46" value="菜鸟保税仓" style="rounded=1;whiteSpace=wrap;html=1;strokeWidth=2;fontSize=18;" vertex="1" parent="1">
          <mxGeometry x="647" y="468" width="300" height="60" as="geometry" />
        </mxCell>
        <mxCell id="mhEgMub5AA9hyZn4WTvB-47" value="菜鸟保税中心仓" style="rounded=1;whiteSpace=wrap;html=1;strokeWidth=2;fontSize=18;" vertex="1" parent="1">
          <mxGeometry x="647" y="548" width="300" height="60" as="geometry" />
        </mxCell>
        <mxCell id="mhEgMub5AA9hyZn4WTvB-48" value="3PL保税仓" style="rounded=1;whiteSpace=wrap;html=1;strokeWidth=2;fontSize=18;" vertex="1" parent="1">
          <mxGeometry x="647" y="628" width="300" height="60" as="geometry" />
        </mxCell>
        <mxCell id="mhEgMub5AA9hyZn4WTvB-49" value="JD保税仓-非JD健康" style="rounded=1;whiteSpace=wrap;html=1;strokeWidth=2;fontSize=18;" vertex="1" parent="1">
          <mxGeometry x="647" y="708" width="300" height="60" as="geometry" />
        </mxCell>
        <mxCell id="mhEgMub5AA9hyZn4WTvB-50" value="3PL保税仓-JD健康" style="rounded=1;whiteSpace=wrap;html=1;strokeWidth=2;fontSize=18;" vertex="1" parent="1">
          <mxGeometry x="647" y="788" width="300" height="60" as="geometry" />
        </mxCell>
        <mxCell id="ufIuFS2i2ZDcEqplQGwD-2" style="edgeStyle=orthogonalEdgeStyle;rounded=0;orthogonalLoop=1;jettySize=auto;html=1;exitX=0.5;exitY=1;exitDx=0;exitDy=0;exitPerimeter=0;entryX=0.5;entryY=0;entryDx=0;entryDy=0;" edge="1" parent="1" source="mhEgMub5AA9hyZn4WTvB-57" target="mhEgMub5AA9hyZn4WTvB-3">
          <mxGeometry relative="1" as="geometry" />
        </mxCell>
        <mxCell id="mhEgMub5AA9hyZn4WTvB-57" value="" style="sketch=0;pointerEvents=1;shadow=0;dashed=0;html=1;strokeColor=none;labelPosition=center;verticalLabelPosition=bottom;verticalAlign=top;align=center;fillColor=#505050;shape=mxgraph.mscae.intune.user_group" vertex="1" parent="1">
          <mxGeometry x="773" y="76" width="50" height="37" as="geometry" />
        </mxCell>
        <mxCell id="ufIuFS2i2ZDcEqplQGwD-1" style="edgeStyle=orthogonalEdgeStyle;rounded=0;orthogonalLoop=1;jettySize=auto;html=1;exitX=0.5;exitY=1;exitDx=0;exitDy=0;exitPerimeter=0;entryX=0.25;entryY=0;entryDx=0;entryDy=0;" edge="1" parent="1" source="mhEgMub5AA9hyZn4WTvB-58" target="mhEgMub5AA9hyZn4WTvB-3">
          <mxGeometry relative="1" as="geometry" />
        </mxCell>
        <mxCell id="mhEgMub5AA9hyZn4WTvB-58" value="" style="sketch=0;pointerEvents=1;shadow=0;dashed=0;html=1;strokeColor=none;labelPosition=center;verticalLabelPosition=bottom;verticalAlign=top;align=center;fillColor=#505050;shape=mxgraph.mscae.intune.user_group" vertex="1" parent="1">
          <mxGeometry x="698" y="76" width="50" height="37" as="geometry" />
        </mxCell>
        <mxCell id="ufIuFS2i2ZDcEqplQGwD-3" style="edgeStyle=orthogonalEdgeStyle;rounded=0;orthogonalLoop=1;jettySize=auto;html=1;exitX=0.5;exitY=1;exitDx=0;exitDy=0;exitPerimeter=0;entryX=0.75;entryY=0;entryDx=0;entryDy=0;" edge="1" parent="1" source="mhEgMub5AA9hyZn4WTvB-59" target="mhEgMub5AA9hyZn4WTvB-3">
          <mxGeometry relative="1" as="geometry" />
        </mxCell>
        <mxCell id="mhEgMub5AA9hyZn4WTvB-59" value="" style="sketch=0;pointerEvents=1;shadow=0;dashed=0;html=1;strokeColor=none;labelPosition=center;verticalLabelPosition=bottom;verticalAlign=top;align=center;fillColor=#505050;shape=mxgraph.mscae.intune.user_group" vertex="1" parent="1">
          <mxGeometry x="849" y="76" width="50" height="37" as="geometry" />
        </mxCell>
        <mxCell id="mhEgMub5AA9hyZn4WTvB-60" value="财务" style="text;html=1;align=center;verticalAlign=middle;whiteSpace=wrap;rounded=0;" vertex="1" parent="1">
          <mxGeometry x="708" y="55" width="30" height="21" as="geometry" />
        </mxCell>
        <mxCell id="mhEgMub5AA9hyZn4WTvB-61" value="供应链" style="text;html=1;align=center;verticalAlign=middle;whiteSpace=wrap;rounded=0;" vertex="1" parent="1">
          <mxGeometry x="778" y="55" width="40" height="21" as="geometry" />
        </mxCell>
        <mxCell id="mhEgMub5AA9hyZn4WTvB-62" value="业务" style="text;html=1;align=center;verticalAlign=middle;whiteSpace=wrap;rounded=0;" vertex="1" parent="1">
          <mxGeometry x="858" y="55" width="30" height="21" as="geometry" />
        </mxCell>
      </root>
    </mxGraphModel>
  </diagram>
  <diagram id="8LPk251PXWMPxjx0-kf4" name="solution-1">
    <mxGraphModel dx="986" dy="559" grid="1" gridSize="10" guides="1" tooltips="1" connect="1" arrows="1" fold="1" page="1" pageScale="1" pageWidth="827" pageHeight="1169" math="0" shadow="0">
      <root>
        <mxCell id="0" />
        <mxCell id="1" parent="0" />
      </root>
    </mxGraphModel>
  </diagram>
</mxfile>
